ISO-10303-21;
HEADER;
FILE_DESCRIPTION (( 'STEP AP214' ),
    '1' );
FILE_NAME ('230-1.STEP',
    '2013-01-28T18:39:41',
    ( 'Richard Maletta' ),
    ( '' ),
    'SwSTEP 2.0',
    'SolidWorks 2009',
    '' );
FILE_SCHEMA (( 'AUTOMOTIVE_DESIGN' ));
ENDSEC;

DATA;
#1 = ORIENTED_EDGE ( 'NONE', *, *, #124, .T. ) ;
#2 = EDGE_CURVE ( 'NONE', #4, #7, #236, .T. ) ;
#3 = ORIENTED_EDGE ( 'NONE', *, *, #8, .T. ) ;
#4 = VERTEX_POINT ( 'NONE', #232 ) ;
#5 = ORIENTED_EDGE ( 'NONE', *, *, #10, .T. ) ;
#6 = VERTEX_POINT ( 'NONE', #231 ) ;
#7 = VERTEX_POINT ( 'NONE', #230 ) ;
#8 = EDGE_CURVE ( 'NONE', #9, #4, #229, .T. ) ;
#9 = VERTEX_POINT ( 'NONE', #225 ) ;
#10 = EDGE_CURVE ( 'NONE', #6, #113, #224, .T. ) ;
#11 = EDGE_LOOP ( 'NONE', ( #3, #125, #1, #5, #47, #57, #44, #54, #64, #33, #60, #26, #37, #39 ) ) ;
#12 = VERTEX_POINT ( 'NONE', #220 ) ;
#13 = VERTEX_POINT ( 'NONE', #219 ) ;
#14 = ORIENTED_EDGE ( 'NONE', *, *, #15, .T. ) ;
#15 = EDGE_CURVE ( 'NONE', #12, #21, #216, .T. ) ;
#16 = VERTEX_POINT ( 'NONE', #501 ) ;
#17 = EDGE_CURVE ( 'NONE', #13, #12, #331, .T. ) ;
#18 = ORIENTED_EDGE ( 'NONE', *, *, #17, .T. ) ;
#19 = EDGE_CURVE ( 'NONE', #25, #131, #495, .T. ) ;
#20 = ORIENTED_EDGE ( 'NONE', *, *, #22, .F. ) ;
#21 = VERTEX_POINT ( 'NONE', #327 ) ;
#22 = EDGE_CURVE ( 'NONE', #16, #21, #506, .T. ) ;
#23 = ADVANCED_FACE ( 'NONE', ( #308 ), #491, .F. ) ;
#24 = MANIFOLD_SOLID_BREP ( 'NONE', #290 ) ;
#25 = VERTEX_POINT ( 'NONE', #306 ) ;
#26 = ORIENTED_EDGE ( 'NONE', *, *, #31, .T. ) ;
#27 = VERTEX_POINT ( 'NONE', #305 ) ;
#28 = VERTEX_POINT ( 'NONE', #538 ) ;
#29 = EDGE_LOOP ( 'NONE', ( #18, #14, #20, #100, #133 ) ) ;
#30 = VERTEX_POINT ( 'NONE', #537 ) ;
#31 = EDGE_CURVE ( 'NONE', #28, #27, #536, .T. ) ;
#32 = EDGE_CURVE ( 'NONE', #45, #55, #532, .T. ) ;
#33 = ORIENTED_EDGE ( 'NONE', *, *, #41, .T. ) ;
#34 = ORIENTED_EDGE ( 'NONE', *, *, #17, .F. ) ;
#35 = EDGE_LOOP ( 'NONE', ( #34, #56 ) ) ;
#36 = VERTEX_POINT ( 'NONE', #527 ) ;
#37 = ORIENTED_EDGE ( 'NONE', *, *, #42, .T. ) ;
#38 = VERTEX_POINT ( 'NONE', #526 ) ;
#39 = ORIENTED_EDGE ( 'NONE', *, *, #40, .T. ) ;
#40 = EDGE_CURVE ( 'NONE', #49, #9, #525, .T. ) ;
#41 = EDGE_CURVE ( 'NONE', #50, #38, #521, .T. ) ;
#42 = EDGE_CURVE ( 'NONE', #27, #49, #517, .T. ) ;
#43 = EDGE_CURVE ( 'NONE', #30, #50, #513, .T. ) ;
#44 = ORIENTED_EDGE ( 'NONE', *, *, #59, .T. ) ;
#45 = VERTEX_POINT ( 'NONE', #509 ) ;
#46 = EDGE_LOOP ( 'NONE', ( #52, #69, #62, #67, #204, #65, #66, #160, #201, #199, #202, #63, #166, #80 ) ) ;
#47 = ORIENTED_EDGE ( 'NONE', *, *, #51, .T. ) ;
#48 = EDGE_CURVE ( 'NONE', #12, #13, #449, .T. ) ;
#49 = VERTEX_POINT ( 'NONE', #444 ) ;
#50 = VERTEX_POINT ( 'NONE', #443 ) ;
#51 = EDGE_CURVE ( 'NONE', #113, #45, #442, .T. ) ;
#52 = ORIENTED_EDGE ( 'NONE', *, *, #19, .F. ) ;
#53 = ADVANCED_FACE ( 'NONE', ( #438, #437 ), #436, .F. ) ;
#54 = ORIENTED_EDGE ( 'NONE', *, *, #58, .T. ) ;
#55 = VERTEX_POINT ( 'NONE', #431 ) ;
#56 = ORIENTED_EDGE ( 'NONE', *, *, #48, .F. ) ;
#57 = ORIENTED_EDGE ( 'NONE', *, *, #32, .T. ) ;
#58 = EDGE_CURVE ( 'NONE', #36, #30, #430, .T. ) ;
#59 = EDGE_CURVE ( 'NONE', #55, #36, #425, .T. ) ;
#60 = ORIENTED_EDGE ( 'NONE', *, *, #61, .T. ) ;
#61 = EDGE_CURVE ( 'NONE', #38, #28, #421, .T. ) ;
#62 = ORIENTED_EDGE ( 'NONE', *, *, #185, .F. ) ;
#63 = ORIENTED_EDGE ( 'NONE', *, *, #165, .F. ) ;
#64 = ORIENTED_EDGE ( 'NONE', *, *, #43, .T. ) ;
#65 = ORIENTED_EDGE ( 'NONE', *, *, #72, .F. ) ;
#66 = ORIENTED_EDGE ( 'NONE', *, *, #76, .F. ) ;
#67 = ORIENTED_EDGE ( 'NONE', *, *, #81, .F. ) ;
#68 = ORIENTED_EDGE ( 'NONE', *, *, #163, .T. ) ;
#69 = ORIENTED_EDGE ( 'NONE', *, *, #82, .F. ) ;
#70 = VERTEX_POINT ( 'NONE', #417 ) ;
#71 = EDGE_LOOP ( 'NONE', ( #145, #162, #87, #84 ) ) ;
#72 = EDGE_CURVE ( 'NONE', #171, #78, #338, .T. ) ;
#73 = VERTEX_POINT ( 'NONE', #334 ) ;
#74 = VERTEX_POINT ( 'NONE', #333 ) ;
#75 = VERTEX_POINT ( 'NONE', #332 ) ;
#76 = EDGE_CURVE ( 'NONE', #73, #171, #458, .T. ) ;
#77 = EDGE_LOOP ( 'NONE', ( #68, #164 ) ) ;
#78 = VERTEX_POINT ( 'NONE', #454 ) ;
#79 = EDGE_CURVE ( 'NONE', #70, #205, #453, .T. ) ;
#80 = ORIENTED_EDGE ( 'NONE', *, *, #167, .F. ) ;
#81 = EDGE_CURVE ( 'NONE', #83, #74, #480, .T. ) ;
#82 = EDGE_CURVE ( 'NONE', #203, #25, #476, .T. ) ;
#83 = VERTEX_POINT ( 'NONE', #472 ) ;
#84 = ORIENTED_EDGE ( 'NONE', *, *, #85, .T. ) ;
#85 = EDGE_CURVE ( 'NONE', #9, #25, #471, .T. ) ;
#86 = EDGE_CURVE ( 'NONE', #4, #131, #467, .T. ) ;
#87 = ORIENTED_EDGE ( 'NONE', *, *, #8, .F. ) ;
#88 = EDGE_CURVE ( 'NONE', #13, #89, #463, .T. ) ;
#89 = VERTEX_POINT ( 'NONE', #490 ) ;
#90 = EDGE_LOOP ( 'NONE', ( #103, #132, #92, #136 ) ) ;
#91 = EDGE_CURVE ( 'NONE', #89, #16, #488, .T. ) ;
#92 = ORIENTED_EDGE ( 'NONE', *, *, #22, .T. ) ;
#93 = ADVANCED_FACE ( 'NONE', ( #489 ), #483, .T. ) ;
#94 = ADVANCED_FACE ( 'NONE', ( #482 ), #413, .T. ) ;
#95 = EDGE_LOOP ( 'NONE', ( #102, #110, #107, #104, #108 ) ) ;
#96 = EDGE_CURVE ( 'NONE', #101, #16, #411, .T. ) ;
#97 = VERTEX_POINT ( 'NONE', #403 ) ;
#98 = EDGE_CURVE ( 'NONE', #21, #99, #402, .T. ) ;
#99 = VERTEX_POINT ( 'NONE', #397 ) ;
#100 = ORIENTED_EDGE ( 'NONE', *, *, #91, .F. ) ;
#101 = VERTEX_POINT ( 'NONE', #396 ) ;
#102 = ORIENTED_EDGE ( 'NONE', *, *, #135, .F. ) ;
#103 = ORIENTED_EDGE ( 'NONE', *, *, #134, .F. ) ;
#104 = ORIENTED_EDGE ( 'NONE', *, *, #123, .T. ) ;
#105 = VERTEX_POINT ( 'NONE', #395 ) ;
#106 = VERTEX_POINT ( 'NONE', #394 ) ;
#107 = ORIENTED_EDGE ( 'NONE', *, *, #122, .T. ) ;
#108 = ORIENTED_EDGE ( 'NONE', *, *, #127, .F. ) ;
#109 = VERTEX_POINT ( 'NONE', #393 ) ;
#110 = ORIENTED_EDGE ( 'NONE', *, *, #111, .T. ) ;
#111 = EDGE_CURVE ( 'NONE', #97, #109, #392, .T. ) ;
#112 = VERTEX_POINT ( 'NONE', #387 ) ;
#113 = VERTEX_POINT ( 'NONE', #386 ) ;
#114 = ORIENTED_EDGE ( 'NONE', *, *, #115, .T. ) ;
#115 = EDGE_CURVE ( 'NONE', #119, #117, #384, .T. ) ;
#116 = ORIENTED_EDGE ( 'NONE', *, *, #120, .F. ) ;
#117 = VERTEX_POINT ( 'NONE', #379 ) ;
#118 = ORIENTED_EDGE ( 'NONE', *, *, #128, .F. ) ;
#119 = VERTEX_POINT ( 'NONE', #378 ) ;
#120 = EDGE_CURVE ( 'NONE', #105, #117, #376, .T. ) ;
#121 = ORIENTED_EDGE ( 'NONE', *, *, #123, .F. ) ;
#122 = EDGE_CURVE ( 'NONE', #109, #106, #371, .T. ) ;
#123 = EDGE_CURVE ( 'NONE', #106, #105, #367, .T. ) ;
#124 = EDGE_CURVE ( 'NONE', #7, #6, #362, .T. ) ;
#125 = ORIENTED_EDGE ( 'NONE', *, *, #2, .T. ) ;
#126 = ADVANCED_FACE ( 'NONE', ( #356, #355 ), #354, .T. ) ;
#127 = EDGE_CURVE ( 'NONE', #112, #105, #323, .T. ) ;
#128 = EDGE_CURVE ( 'NONE', #119, #106, #319, .T. ) ;
#129 = EDGE_LOOP ( 'NONE', ( #118, #114, #116, #121 ) ) ;
#130 = ADVANCED_FACE ( 'NONE', ( #314 ), #313, .F. ) ;
#131 = VERTEX_POINT ( 'NONE', #715 ) ;
#132 = ORIENTED_EDGE ( 'NONE', *, *, #96, .T. ) ;
#133 = ORIENTED_EDGE ( 'NONE', *, *, #88, .F. ) ;
#134 = EDGE_CURVE ( 'NONE', #101, #99, #714, .T. ) ;
#135 = EDGE_CURVE ( 'NONE', #97, #112, #542, .T. ) ;
#136 = ORIENTED_EDGE ( 'NONE', *, *, #98, .T. ) ;
#137 = ORIENTED_EDGE ( 'NONE', *, *, #286, .F. ) ;
#138 = EDGE_CURVE ( 'NONE', #30, #73, #627, .T. ) ;
#139 = ORIENTED_EDGE ( 'NONE', *, *, #153, .T. ) ;
#140 = ORIENTED_EDGE ( 'NONE', *, *, #161, .T. ) ;
#141 = ORIENTED_EDGE ( 'NONE', *, *, #142, .F. ) ;
#142 = EDGE_CURVE ( 'NONE', #50, #171, #631, .T. ) ;
#143 = ORIENTED_EDGE ( 'NONE', *, *, #10, .F. ) ;
#144 = EDGE_LOOP ( 'NONE', ( #147, #148, #178, #195 ) ) ;
#145 = ORIENTED_EDGE ( 'NONE', *, *, #19, .T. ) ;
#146 = ADVANCED_FACE ( 'NONE', ( #671 ), #546, .F. ) ;
#147 = ORIENTED_EDGE ( 'NONE', *, *, #158, .T. ) ;
#148 = ORIENTED_EDGE ( 'NONE', *, *, #177, .F. ) ;
#149 = ORIENTED_EDGE ( 'NONE', *, *, #181, .T. ) ;
#150 = VERTEX_POINT ( 'NONE', #608 ) ;
#151 = EDGE_CURVE ( 'NONE', #78, #83, #610, .T. ) ;
#152 = ORIENTED_EDGE ( 'NONE', *, *, #58, .F. ) ;
#153 = EDGE_CURVE ( 'NONE', #55, #75, #704, .T. ) ;
#154 = ORIENTED_EDGE ( 'NONE', *, *, #168, .T. ) ;
#155 = EDGE_LOOP ( 'NONE', ( #156, #141, #249, #287 ) ) ;
#156 = ORIENTED_EDGE ( 'NONE', *, *, #76, .T. ) ;
#157 = ORIENTED_EDGE ( 'NONE', *, *, #151, .T. ) ;
#158 = EDGE_CURVE ( 'NONE', #159, #150, #651, .T. ) ;
#159 = VERTEX_POINT ( 'NONE', #618 ) ;
#160 = ORIENTED_EDGE ( 'NONE', *, *, #161, .F. ) ;
#161 = EDGE_CURVE ( 'NONE', #172, #73, #638, .T. ) ;
#162 = ORIENTED_EDGE ( 'NONE', *, *, #86, .F. ) ;
#163 = EDGE_CURVE ( 'NONE', #112, #97, #540, .T. ) ;
#164 = ORIENTED_EDGE ( 'NONE', *, *, #135, .T. ) ;
#165 = EDGE_CURVE ( 'NONE', #205, #159, #635, .T. ) ;
#166 = ORIENTED_EDGE ( 'NONE', *, *, #79, .F. ) ;
#167 = EDGE_CURVE ( 'NONE', #131, #70, #583, .T. ) ;
#168 = EDGE_CURVE ( 'NONE', #150, #75, #647, .T. ) ;
#169 = ORIENTED_EDGE ( 'NONE', *, *, #181, .F. ) ;
#170 = ORIENTED_EDGE ( 'NONE', *, *, #180, .F. ) ;
#171 = VERTEX_POINT ( 'NONE', #623 ) ;
#172 = VERTEX_POINT ( 'NONE', #622 ) ;
#173 = ADVANCED_FACE ( 'NONE', ( #621 ), #620, .F. ) ;
#174 = ADVANCED_FACE ( 'NONE', ( #619 ), #664, .F. ) ;
#175 = EDGE_LOOP ( 'NONE', ( #243, #250, #262, #263 ) ) ;
#176 = ORIENTED_EDGE ( 'NONE', *, *, #138, .F. ) ;
#177 = EDGE_CURVE ( 'NONE', #45, #150, #590, .T. ) ;
#178 = ORIENTED_EDGE ( 'NONE', *, *, #51, .F. ) ;
#179 = EDGE_CURVE ( 'NONE', #7, #70, #616, .T. ) ;
#180 = EDGE_CURVE ( 'NONE', #113, #159, #612, .T. ) ;
#181 = EDGE_CURVE ( 'NONE', #6, #205, #643, .T. ) ;
#182 = EDGE_LOOP ( 'NONE', ( #188, #170, #143, #149 ) ) ;
#183 = EDGE_LOOP ( 'NONE', ( #193, #191, #198, #192 ) ) ;
#184 = ORIENTED_EDGE ( 'NONE', *, *, #79, .T. ) ;
#185 = EDGE_CURVE ( 'NONE', #74, #203, #597, .T. ) ;
#186 = EDGE_LOOP ( 'NONE', ( #184, #169, #187, #189 ) ) ;
#187 = ORIENTED_EDGE ( 'NONE', *, *, #124, .F. ) ;
#188 = ORIENTED_EDGE ( 'NONE', *, *, #165, .T. ) ;
#189 = ORIENTED_EDGE ( 'NONE', *, *, #179, .T. ) ;
#190 = ADVANCED_FACE ( 'NONE', ( #591 ), #593, .F. ) ;
#191 = ORIENTED_EDGE ( 'NONE', *, *, #179, .F. ) ;
#192 = ORIENTED_EDGE ( 'NONE', *, *, #86, .T. ) ;
#193 = ORIENTED_EDGE ( 'NONE', *, *, #167, .T. ) ;
#194 = ADVANCED_FACE ( 'NONE', ( #663 ), #659, .F. ) ;
#195 = ORIENTED_EDGE ( 'NONE', *, *, #180, .T. ) ;
#196 = ADVANCED_FACE ( 'NONE', ( #711 ), #705, .T. ) ;
#197 = EDGE_LOOP ( 'NONE', ( #154, #275, #248, #276 ) ) ;
#198 = ORIENTED_EDGE ( 'NONE', *, *, #2, .F. ) ;
#199 = ORIENTED_EDGE ( 'NONE', *, *, #168, .F. ) ;
#200 = EDGE_CURVE ( 'NONE', #75, #172, #737, .T. ) ;
#201 = ORIENTED_EDGE ( 'NONE', *, *, #200, .F. ) ;
#202 = ORIENTED_EDGE ( 'NONE', *, *, #158, .F. ) ;
#203 = VERTEX_POINT ( 'NONE', #733 ) ;
#204 = ORIENTED_EDGE ( 'NONE', *, *, #151, .F. ) ;
#205 = VERTEX_POINT ( 'NONE', #732 ) ;
#206 = ORIENTED_EDGE ( 'NONE', *, *, #163, .F. ) ;
#207 = ORIENTED_EDGE ( 'NONE', *, *, #115, .F. ) ;
#208 = ORIENTED_EDGE ( 'NONE', *, *, #128, .T. ) ;
#209 = ORIENTED_EDGE ( 'NONE', *, *, #122, .F. ) ;
#210 = EDGE_LOOP ( 'NONE', ( #211, #206, #283, #254, #255 ) ) ;
#211 = ORIENTED_EDGE ( 'NONE', *, *, #111, .F. ) ;
#212 = ADVANCED_FACE ( 'NONE', ( #731 ), #730, .F. ) ;
#213 = DIRECTION ( 'NONE',  ( -1.000000000000000000, 0.0000000000000000000, 1.224606353822377300E-016 ) ) ;
#214 = CARTESIAN_POINT ( 'NONE',  ( 0.4279999999999999400, 0.008999999999999992400, -0.06249799996799894300 ) ) ;
#215 = AXIS2_PLACEMENT_3D ( 'NONE', #214, #213, #329 ) ;
#216 = CIRCLE ( 'NONE', #215, 0.001000000000000003100 ) ;
#217 = DIRECTION ( 'NONE',  ( -1.000000000000000000, 0.0000000000000000000, 1.552186360036513200E-016 ) ) ;
#218 = PLANE ( 'NONE',  #567 ) ;
#219 = CARTESIAN_POINT ( 'NONE',  ( 0.4279999999999999400, 0.007999999999999993200, 0.06249799996799901300 ) ) ;
#220 = CARTESIAN_POINT ( 'NONE',  ( 0.4279999999999999400, 0.007999999999999993200, -0.06249799996799894300 ) ) ;
#221 = DIRECTION ( 'NONE',  ( -1.241749088029210600E-015, 0.0000000000000000000, 1.000000000000000000 ) ) ;
#222 = VECTOR ( 'NONE', #221, 39.37007874015748100 ) ;
#223 = CARTESIAN_POINT ( 'NONE',  ( 0.1999999999999999800, 0.008000000000000000200, 0.04499999999999997100 ) ) ;
#224 = LINE ( 'NONE', #223, #222 ) ;
#225 = CARTESIAN_POINT ( 'NONE',  ( 0.0000000000000000000, 0.008000000000000000200, 0.09999999999999997800 ) ) ;
#226 = DIRECTION ( 'NONE',  ( 1.000000000000000000, 0.0000000000000000000, 0.0000000000000000000 ) ) ;
#227 = VECTOR ( 'NONE', #226, 39.37007874015748100 ) ;
#228 = CARTESIAN_POINT ( 'NONE',  ( 0.0000000000000000000, 0.008000000000000000200, 0.09999999999999997800 ) ) ;
#229 = LINE ( 'NONE', #228, #227 ) ;
#230 = CARTESIAN_POINT ( 'NONE',  ( 0.05000000000000001000, 0.008000000000000000200, 0.04499999999999997100 ) ) ;
#231 = CARTESIAN_POINT ( 'NONE',  ( 0.1999999999999999800, 0.008000000000000000200, 0.04499999999999997100 ) ) ;
#232 = CARTESIAN_POINT ( 'NONE',  ( 0.05000000000000000300, 0.008000000000000000200, 0.09999999999999997800 ) ) ;
#233 = DIRECTION ( 'NONE',  ( 1.552186360036513200E-016, 0.0000000000000000000, -1.000000000000000000 ) ) ;
#234 = VECTOR ( 'NONE', #233, 39.37007874015748100 ) ;
#235 = CARTESIAN_POINT ( 'NONE',  ( 0.05000000000000000300, 0.008000000000000000200, 0.09999999999999997800 ) ) ;
#236 = LINE ( 'NONE', #235, #234 ) ;
#237 = ADVANCED_FACE ( 'NONE', ( #729 ), #686, .F. ) ;
#238 = ORIENTED_EDGE ( 'NONE', *, *, #185, .T. ) ;
#239 = EDGE_LOOP ( 'NONE', ( #272, #273, #280, #284 ) ) ;
#240 = ORIENTED_EDGE ( 'NONE', *, *, #96, .F. ) ;
#241 = ORIENTED_EDGE ( 'NONE', *, *, #134, .T. ) ;
#242 = ORIENTED_EDGE ( 'NONE', *, *, #289, .T. ) ;
#243 = ORIENTED_EDGE ( 'NONE', *, *, #72, .T. ) ;
#244 = ADVANCED_FACE ( 'NONE', ( #684 ), #680, .F. ) ;
#245 = EDGE_CURVE ( 'NONE', #36, #172, #678, .T. ) ;
#246 = ADVANCED_FACE ( 'NONE', ( #698 ), #696, .F. ) ;
#247 = ORIENTED_EDGE ( 'NONE', *, *, #245, .F. ) ;
#248 = ORIENTED_EDGE ( 'NONE', *, *, #32, .F. ) ;
#249 = ORIENTED_EDGE ( 'NONE', *, *, #43, .F. ) ;
#250 = ORIENTED_EDGE ( 'NONE', *, *, #256, .F. ) ;
#251 = ADVANCED_FACE ( 'NONE', ( #691 ), #690, .T. ) ;
#252 = EDGE_LOOP ( 'NONE', ( #240, #241, #242, #297 ) ) ;
#253 = EDGE_LOOP ( 'NONE', ( #238, #258, #278, #279 ) ) ;
#254 = ORIENTED_EDGE ( 'NONE', *, *, #120, .T. ) ;
#255 = ORIENTED_EDGE ( 'NONE', *, *, #303, .T. ) ;
#256 = EDGE_CURVE ( 'NONE', #38, #78, #723, .T. ) ;
#257 = ORIENTED_EDGE ( 'NONE', *, *, #245, .T. ) ;
#258 = ORIENTED_EDGE ( 'NONE', *, *, #285, .F. ) ;
#259 = ADVANCED_FACE ( 'NONE', ( #717 ), #716, .T. ) ;
#260 = ORIENTED_EDGE ( 'NONE', *, *, #200, .T. ) ;
#261 = ADVANCED_FACE ( 'NONE', ( #560 ), #557, .F. ) ;
#262 = ORIENTED_EDGE ( 'NONE', *, *, #41, .F. ) ;
#263 = ORIENTED_EDGE ( 'NONE', *, *, #142, .T. ) ;
#264 = ADVANCED_FACE ( 'NONE', ( #555 ), #548, .F. ) ;
#265 = EDGE_LOOP ( 'NONE', ( #266, #267, #268, #269 ) ) ;
#266 = ORIENTED_EDGE ( 'NONE', *, *, #82, .T. ) ;
#267 = ORIENTED_EDGE ( 'NONE', *, *, #85, .F. ) ;
#268 = ORIENTED_EDGE ( 'NONE', *, *, #40, .F. ) ;
#269 = ORIENTED_EDGE ( 'NONE', *, *, #285, .T. ) ;
#270 = ADVANCED_FACE ( 'NONE', ( #549 ), #603, .F. ) ;
#271 = EDGE_LOOP ( 'NONE', ( #157, #137, #298, #299 ) ) ;
#272 = ORIENTED_EDGE ( 'NONE', *, *, #81, .T. ) ;
#273 = ORIENTED_EDGE ( 'NONE', *, *, #274, .F. ) ;
#274 = EDGE_CURVE ( 'NONE', #27, #74, #579, .T. ) ;
#275 = ORIENTED_EDGE ( 'NONE', *, *, #153, .F. ) ;
#276 = ORIENTED_EDGE ( 'NONE', *, *, #177, .T. ) ;
#277 = EDGE_LOOP ( 'NONE', ( #260, #247, #282, #139 ) ) ;
#278 = ORIENTED_EDGE ( 'NONE', *, *, #42, .F. ) ;
#279 = ORIENTED_EDGE ( 'NONE', *, *, #274, .T. ) ;
#280 = ORIENTED_EDGE ( 'NONE', *, *, #31, .F. ) ;
#281 = EDGE_LOOP ( 'NONE', ( #140, #176, #152, #257 ) ) ;
#282 = ORIENTED_EDGE ( 'NONE', *, *, #59, .F. ) ;
#283 = ORIENTED_EDGE ( 'NONE', *, *, #127, .T. ) ;
#284 = ORIENTED_EDGE ( 'NONE', *, *, #286, .T. ) ;
#285 = EDGE_CURVE ( 'NONE', #49, #203, #575, .T. ) ;
#286 = EDGE_CURVE ( 'NONE', #28, #83, #571, .T. ) ;
#287 = ORIENTED_EDGE ( 'NONE', *, *, #138, .T. ) ;
#288 = ORIENTED_EDGE ( 'NONE', *, *, #289, .F. ) ;
#289 = EDGE_CURVE ( 'NONE', #99, #89, #566, .T. ) ;
#290 = CLOSED_SHELL ( 'NONE', ( #23, #93, #94, #130, #126, #53, #190, #174, #173, #194, #146, #196, #244, #259, #212, #261, #246, #300, #237, #264, #270, #304, #251, #291 ) ) ;
#291 = ADVANCED_FACE ( 'NONE', ( #742 ), #741, .F. ) ;
#292 = EDGE_LOOP ( 'NONE', ( #293, #295, #294, #288, #296 ) ) ;
#293 = ORIENTED_EDGE ( 'NONE', *, *, #15, .F. ) ;
#294 = ORIENTED_EDGE ( 'NONE', *, *, #88, .T. ) ;
#295 = ORIENTED_EDGE ( 'NONE', *, *, #48, .T. ) ;
#296 = ORIENTED_EDGE ( 'NONE', *, *, #98, .F. ) ;
#297 = ORIENTED_EDGE ( 'NONE', *, *, #91, .T. ) ;
#298 = ORIENTED_EDGE ( 'NONE', *, *, #61, .F. ) ;
#299 = ORIENTED_EDGE ( 'NONE', *, *, #256, .T. ) ;
#300 = ADVANCED_FACE ( 'NONE', ( #743 ), #218, .F. ) ;
#301 = EDGE_LOOP ( 'NONE', ( #207, #208, #209, #302 ) ) ;
#302 = ORIENTED_EDGE ( 'NONE', *, *, #303, .F. ) ;
#303 = EDGE_CURVE ( 'NONE', #117, #109, #784, .T. ) ;
#304 = ADVANCED_FACE ( 'NONE', ( #767 ), #765, .T. ) ;
#305 = CARTESIAN_POINT ( 'NONE',  ( 0.05000000000000000300, 0.008000000000000000200, -0.09999999999999997800 ) ) ;
#306 = CARTESIAN_POINT ( 'NONE',  ( 0.0000000000000000000, 0.0000000000000000000, 0.09999999999999997800 ) ) ;
#307 =( GEOMETRIC_REPRESENTATION_CONTEXT ( 3 ) GLOBAL_UNCERTAINTY_ASSIGNED_CONTEXT ( ( #339 ) ) GLOBAL_UNIT_ASSIGNED_CONTEXT ( ( #342, #341, #340 ) ) REPRESENTATION_CONTEXT ( 'NONE', 'WORKASPACE' ) );
#308 = FACE_OUTER_BOUND ( 'NONE', #29, .T. ) ;
#309 = DIRECTION ( 'NONE',  ( -1.000000000000000000, 0.0000000000000000000, 0.0000000000000000000 ) ) ;
#310 = DIRECTION ( 'NONE',  ( -0.0000000000000000000, -0.0000000000000000000, -1.000000000000000000 ) ) ;
#311 = AXIS2_PLACEMENT_3D ( 'NONE', #312, #310, #309 ) ;
#312 = CARTESIAN_POINT ( 'NONE',  ( 0.4279999999999999400, -0.09738235294117650300, 3.414809992080329000E-017 ) ) ;
#313 = SPHERICAL_SURFACE ( 'NONE', #311, 0.1143823529411765000 ) ;
#314 = FACE_OUTER_BOUND ( 'NONE', #129, .T. ) ;
#315 = DIRECTION ( 'NONE',  ( 1.000000000000000000, 0.0000000000000000000, 0.0000000000000000000 ) ) ;
#316 = DIRECTION ( 'NONE',  ( 0.0000000000000000000, 0.0000000000000000000, 1.000000000000000000 ) ) ;
#317 = CARTESIAN_POINT ( 'NONE',  ( 0.4279999999999999400, -0.09738235294117650300, 3.414809992080329000E-017 ) ) ;
#318 = AXIS2_PLACEMENT_3D ( 'NONE', #317, #316, #315 ) ;
#319 = CIRCLE ( 'NONE', #318, 0.1143823529411764900 ) ;
#320 = DIRECTION ( 'NONE',  ( 0.0000000000000000000, 0.0000000000000000000, -1.000000000000000000 ) ) ;
#321 = DIRECTION ( 'NONE',  ( 1.000000000000000000, 0.0000000000000000000, -0.0000000000000000000 ) ) ;
#322 = AXIS2_PLACEMENT_3D ( 'NONE', #326, #321, #320 ) ;
#323 = CIRCLE ( 'NONE', #322, 0.009000000000000001100 ) ;
#324 = DIRECTION ( 'NONE',  ( 0.0000000000000000000, -0.0000000000000000000, 1.000000000000000000 ) ) ;
#325 = DIRECTION ( 'NONE',  ( 0.0000000000000000000, 1.000000000000000000, 0.0000000000000000000 ) ) ;
#326 = CARTESIAN_POINT ( 'NONE',  ( 0.4279999999999999400, 0.008999999999999992400, 0.06249799996799901300 ) ) ;
#327 = CARTESIAN_POINT ( 'NONE',  ( 0.4279999999999999400, 0.008137783075089397400, -0.06199146075490912000 ) ) ;
#328 = DIRECTION ( 'NONE',  ( 0.0000000000000000000, 0.0000000000000000000, -1.000000000000000000 ) ) ;
#329 = DIRECTION ( 'NONE',  ( 0.0000000000000000000, 0.0000000000000000000, 1.000000000000000000 ) ) ;
#330 = AXIS2_PLACEMENT_3D ( 'NONE', #385, #500, #328 ) ;
#331 = CIRCLE ( 'NONE', #330, 0.06249799996799897800 ) ;
#332 = CARTESIAN_POINT ( 'NONE',  ( 0.5279999999999999100, 0.0000000000000000000, 0.07999999999999986300 ) ) ;
#333 = CARTESIAN_POINT ( 'NONE',  ( 0.05000000000000000300, 0.0000000000000000000, -0.09999999999999997800 ) ) ;
#334 = CARTESIAN_POINT ( 'NONE',  ( 0.5079999999999997900, 0.0000000000000000000, -0.1000000000000000100 ) ) ;
#335 = DIRECTION ( 'NONE',  ( 1.241749088029210600E-015, -0.0000000000000000000, 1.000000000000000000 ) ) ;
#336 = VECTOR ( 'NONE', #335, 39.37007874015748100 ) ;
#337 = CARTESIAN_POINT ( 'NONE',  ( 0.1999999999999999800, 0.0000000000000000000, -0.04499999999999997100 ) ) ;
#338 = LINE ( 'NONE', #337, #336 ) ;
#339 = UNCERTAINTY_MEASURE_WITH_UNIT (LENGTH_MEASURE( 1.000000000000000100E-005 ), #342, 'distance_accuracy_value', 'NONE');
#340 =( NAMED_UNIT ( * ) SI_UNIT ( $, .STERADIAN. ) SOLID_ANGLE_UNIT ( ) );
#341 =( NAMED_UNIT ( * ) PLANE_ANGLE_UNIT ( ) SI_UNIT ( $, .RADIAN. ) );
#342 =( CONVERSION_BASED_UNIT ( 'INCH', #496 ) LENGTH_UNIT ( ) NAMED_UNIT ( #497 ) );
#343 = PRESENTATION_LAYER_ASSIGNMENT (  '', '', ( #344 ) ) ;
#344 = STYLED_ITEM ( 'NONE', ( #345 ), #24 ) ;
#345 = PRESENTATION_STYLE_ASSIGNMENT (( #346 ) ) ;
#346 = SURFACE_STYLE_USAGE ( .BOTH. , #347 ) ;
#347 = SURFACE_SIDE_STYLE ('',( #348 ) ) ;
#348 = SURFACE_STYLE_FILL_AREA ( #349 ) ;
#349 = FILL_AREA_STYLE ('',( #350 ) ) ;
#350 = FILL_AREA_STYLE_COLOUR ( '', #492 ) ;
#351 = DIRECTION ( 'NONE',  ( 0.0000000000000000000, 0.0000000000000000000, 1.000000000000000000 ) ) ;
#352 = DIRECTION ( 'NONE',  ( 0.0000000000000000000, -1.000000000000000000, 0.0000000000000000000 ) ) ;
#353 = DIRECTION ( 'NONE',  ( 1.000000000000000000, 0.0000000000000000000, 0.0000000000000000000 ) ) ;
#354 = PLANE ( 'NONE',  #358 ) ;
#355 = FACE_BOUND ( 'NONE', #35, .T. ) ;
#356 = FACE_OUTER_BOUND ( 'NONE', #11, .T. ) ;
#357 = CARTESIAN_POINT ( 'NONE',  ( 0.5079999999999999000, 0.008000000000000000200, 0.08000000000000001600 ) ) ;
#358 = AXIS2_PLACEMENT_3D ( 'NONE', #357, #325, #324 ) ;
#359 = DIRECTION ( 'NONE',  ( 1.000000000000000000, 0.0000000000000000000, 0.0000000000000000000 ) ) ;
#360 = VECTOR ( 'NONE', #359, 39.37007874015748100 ) ;
#361 = CARTESIAN_POINT ( 'NONE',  ( 0.05000000000000001000, 0.008000000000000000200, 0.04499999999999997100 ) ) ;
#362 = LINE ( 'NONE', #361, #360 ) ;
#363 = DIRECTION ( 'NONE',  ( 0.0000000000000000000, 0.0000000000000000000, 1.000000000000000000 ) ) ;
#364 = DIRECTION ( 'NONE',  ( -0.0000000000000000000, 1.000000000000000000, -0.0000000000000000000 ) ) ;
#365 = CARTESIAN_POINT ( 'NONE',  ( 0.4279999999999999400, 0.001240047675804524300, 3.414809992080329000E-017 ) ) ;
#366 = AXIS2_PLACEMENT_3D ( 'NONE', #365, #364, #363 ) ;
#367 = CIRCLE ( 'NONE', #366, 0.05793914705019023700 ) ;
#368 = DIRECTION ( 'NONE',  ( 0.0000000000000000000, 0.0000000000000000000, 1.000000000000000000 ) ) ;
#369 = DIRECTION ( 'NONE',  ( -0.0000000000000000000, 1.000000000000000000, -0.0000000000000000000 ) ) ;
#370 = AXIS2_PLACEMENT_3D ( 'NONE', #377, #369, #368 ) ;
#371 = CIRCLE ( 'NONE', #370, 0.05793914705019023700 ) ;
#372 = DIRECTION ( 'NONE',  ( 0.0000000000000000000, 0.0000000000000000000, 1.000000000000000000 ) ) ;
#373 = DIRECTION ( 'NONE',  ( -0.0000000000000000000, 1.000000000000000000, -0.0000000000000000000 ) ) ;
#374 = CARTESIAN_POINT ( 'NONE',  ( 0.4279999999999999400, 0.001240047675804524300, 3.414809992080329000E-017 ) ) ;
#375 = AXIS2_PLACEMENT_3D ( 'NONE', #374, #373, #372 ) ;
#376 = CIRCLE ( 'NONE', #375, 0.05793914705019023700 ) ;
#377 = CARTESIAN_POINT ( 'NONE',  ( 0.4279999999999999400, 0.001240047675804524300, 3.414809992080329000E-017 ) ) ;
#378 = CARTESIAN_POINT ( 'NONE',  ( 0.4279999999999999400, 0.01700000000000000100, 3.414809992080329000E-017 ) ) ;
#379 = CARTESIAN_POINT ( 'NONE',  ( 0.4859391470501901500, 0.001240047675804515600, 2.705283515953208500E-017 ) ) ;
#380 = DIRECTION ( 'NONE',  ( -1.000000000000000000, 0.0000000000000000000, 1.224606353822377000E-016 ) ) ;
#381 = DIRECTION ( 'NONE',  ( -1.224606353822377300E-016, -0.0000000000000000000, -1.000000000000000000 ) ) ;
#382 = CARTESIAN_POINT ( 'NONE',  ( 0.4279999999999999400, -0.09738235294117650300, 3.414809992080329000E-017 ) ) ;
#383 = AXIS2_PLACEMENT_3D ( 'NONE', #382, #381, #380 ) ;
#384 = CIRCLE ( 'NONE', #383, 0.1143823529411764900 ) ;
#385 = CARTESIAN_POINT ( 'NONE',  ( 0.4279999999999999400, 0.007999999999999993200, 3.414809992080329000E-017 ) ) ;
#386 = CARTESIAN_POINT ( 'NONE',  ( 0.1999999999999999300, 0.008000000000000000200, 0.09999999999999997800 ) ) ;
#387 = CARTESIAN_POINT ( 'NONE',  ( 0.4279999999999999400, -3.201384367575308500E-018, 0.06249799996799901300 ) ) ;
#388 = DIRECTION ( 'NONE',  ( 0.0000000000000000000, 0.0000000000000000000, 1.000000000000000000 ) ) ;
#389 = DIRECTION ( 'NONE',  ( -1.000000000000000000, 0.0000000000000000000, 1.224606353822377300E-016 ) ) ;
#390 = CARTESIAN_POINT ( 'NONE',  ( 0.4279999999999999400, 0.008999999999999992400, -0.06249799996799894300 ) ) ;
#391 = AXIS2_PLACEMENT_3D ( 'NONE', #390, #389, #388 ) ;
#392 = CIRCLE ( 'NONE', #391, 0.009000000000000001100 ) ;
#393 = CARTESIAN_POINT ( 'NONE',  ( 0.4279999999999999400, 0.001240047675804524300, -0.05793914705019020300 ) ) ;
#394 = CARTESIAN_POINT ( 'NONE',  ( 0.3700608529498096700, 0.001240047675804515600, 3.414809992080329000E-017 ) ) ;
#395 = CARTESIAN_POINT ( 'NONE',  ( 0.4279999999999999400, 0.001240047675804524300, 0.05793914705019027200 ) ) ;
#396 = CARTESIAN_POINT ( 'NONE',  ( 0.4279999999999999400, 0.02500000000000000500, 3.414809992080329000E-017 ) ) ;
#397 = CARTESIAN_POINT ( 'NONE',  ( 0.3660085392450908000, 0.008137783075089397400, 3.414809992080329000E-017 ) ) ;
#398 = DIRECTION ( 'NONE',  ( 0.0000000000000000000, 0.0000000000000000000, -1.000000000000000000 ) ) ;
#399 = DIRECTION ( 'NONE',  ( -0.0000000000000000000, 1.000000000000000000, -0.0000000000000000000 ) ) ;
#400 = CARTESIAN_POINT ( 'NONE',  ( 0.4279999999999999400, 0.008137783075089397400, 3.414809992080329000E-017 ) ) ;
#401 = AXIS2_PLACEMENT_3D ( 'NONE', #400, #399, #398 ) ;
#402 = CIRCLE ( 'NONE', #401, 0.06199146075490914000 ) ;
#403 = CARTESIAN_POINT ( 'NONE',  ( 0.4279999999999999400, -3.201384367575308500E-018, -0.06249799996799894300 ) ) ;
#404 = DIRECTION ( 'NONE',  ( -1.000000000000000000, 0.0000000000000000000, 1.224606353822377300E-016 ) ) ;
#405 = DIRECTION ( 'NONE',  ( -1.224606353822377300E-016, -0.0000000000000000000, -1.000000000000000000 ) ) ;
#406 = CARTESIAN_POINT ( 'NONE',  ( 0.4279999999999999400, -0.09738235294117650300, 3.414809992080329000E-017 ) ) ;
#407 = AXIS2_PLACEMENT_3D ( 'NONE', #406, #405, #404 ) ;
#408 = DIRECTION ( 'NONE',  ( 0.0000000000000000000, 0.0000000000000000000, 1.000000000000000000 ) ) ;
#409 = DIRECTION ( 'NONE',  ( 0.0000000000000000000, -1.000000000000000000, 0.0000000000000000000 ) ) ;
#410 = AXIS2_PLACEMENT_3D ( 'NONE', #412, #409, #408 ) ;
#411 = CIRCLE ( 'NONE', #407, 0.1223823529411765100 ) ;
#412 = CARTESIAN_POINT ( 'NONE',  ( 0.4279999999999999400, 0.008999999999999992400, 3.414809992080329000E-017 ) ) ;
#413 = TOROIDAL_SURFACE ( 'NONE', #410, 0.06249799996799897800, 0.008999999999999999300 ) ;
#414 = DIRECTION ( 'NONE',  ( -1.000000000000000000, 0.0000000000000000000, 0.0000000000000000000 ) ) ;
#415 = DIRECTION ( 'NONE',  ( -0.0000000000000000000, -0.0000000000000000000, -1.000000000000000000 ) ) ;
#416 = CARTESIAN_POINT ( 'NONE',  ( 0.4279999999999999400, -0.09738235294117650300, 3.414809992080329000E-017 ) ) ;
#417 = CARTESIAN_POINT ( 'NONE',  ( 0.05000000000000001000, 0.0000000000000000000, 0.04499999999999997100 ) ) ;
#418 = DIRECTION ( 'NONE',  ( -1.000000000000000000, -0.0000000000000000000, -0.0000000000000000000 ) ) ;
#419 = VECTOR ( 'NONE', #418, 39.37007874015748100 ) ;
#420 = CARTESIAN_POINT ( 'NONE',  ( 0.05000000000000001000, 0.008000000000000000200, -0.04499999999999997100 ) ) ;
#421 = LINE ( 'NONE', #420, #419 ) ;
#422 = DIRECTION ( 'NONE',  ( 0.0000000000000000000, 0.0000000000000000000, -1.000000000000000000 ) ) ;
#423 = VECTOR ( 'NONE', #422, 39.37007874015748100 ) ;
#424 = CARTESIAN_POINT ( 'NONE',  ( 0.5279999999999999100, 0.008000000000000000200, 0.07999999999999986300 ) ) ;
#425 = LINE ( 'NONE', #424, #423 ) ;
#426 = DIRECTION ( 'NONE',  ( 0.0000000000000000000, 0.0000000000000000000, 1.000000000000000000 ) ) ;
#427 = DIRECTION ( 'NONE',  ( 0.0000000000000000000, 1.000000000000000000, 0.0000000000000000000 ) ) ;
#428 = CARTESIAN_POINT ( 'NONE',  ( 0.5079999999999999000, 0.008000000000000000200, -0.08000000000000001600 ) ) ;
#429 = AXIS2_PLACEMENT_3D ( 'NONE', #428, #427, #426 ) ;
#430 = CIRCLE ( 'NONE', #429, 0.01999999999999999000 ) ;
#431 = CARTESIAN_POINT ( 'NONE',  ( 0.5279999999999999100, 0.008000000000000000200, 0.07999999999999986300 ) ) ;
#432 = DIRECTION ( 'NONE',  ( 0.0000000000000000000, -0.0000000000000000000, 1.000000000000000000 ) ) ;
#433 = DIRECTION ( 'NONE',  ( 0.0000000000000000000, 1.000000000000000000, 0.0000000000000000000 ) ) ;
#434 = CARTESIAN_POINT ( 'NONE',  ( 0.5079999999999999000, 0.0000000000000000000, 0.08000000000000001600 ) ) ;
#435 = AXIS2_PLACEMENT_3D ( 'NONE', #434, #433, #432 ) ;
#436 = PLANE ( 'NONE',  #435 ) ;
#437 = FACE_BOUND ( 'NONE', #77, .T. ) ;
#438 = FACE_OUTER_BOUND ( 'NONE', #46, .T. ) ;
#439 = DIRECTION ( 'NONE',  ( 1.000000000000000000, -0.0000000000000000000, 1.108704542883224100E-016 ) ) ;
#440 = VECTOR ( 'NONE', #439, 39.37007874015748100 ) ;
#441 = CARTESIAN_POINT ( 'NONE',  ( 0.5079999999999997900, 0.008000000000000000200, 0.1000000000000000100 ) ) ;
#442 = LINE ( 'NONE', #441, #440 ) ;
#443 = CARTESIAN_POINT ( 'NONE',  ( 0.1999999999999999300, 0.008000000000000000200, -0.09999999999999997800 ) ) ;
#444 = CARTESIAN_POINT ( 'NONE',  ( 0.0000000000000000000, 0.008000000000000000200, -0.09999999999999997800 ) ) ;
#445 = DIRECTION ( 'NONE',  ( 0.0000000000000000000, 0.0000000000000000000, -1.000000000000000000 ) ) ;
#446 = DIRECTION ( 'NONE',  ( -0.0000000000000000000, 1.000000000000000000, -0.0000000000000000000 ) ) ;
#447 = CARTESIAN_POINT ( 'NONE',  ( 0.4279999999999999400, 0.007999999999999993200, 3.414809992080329000E-017 ) ) ;
#448 = AXIS2_PLACEMENT_3D ( 'NONE', #447, #446, #445 ) ;
#449 = CIRCLE ( 'NONE', #448, 0.06249799996799897800 ) ;
#450 = DIRECTION ( 'NONE',  ( 1.000000000000000000, 0.0000000000000000000, 0.0000000000000000000 ) ) ;
#451 = VECTOR ( 'NONE', #450, 39.37007874015748100 ) ;
#452 = CARTESIAN_POINT ( 'NONE',  ( 0.05000000000000001000, 0.0000000000000000000, 0.04499999999999997100 ) ) ;
#453 = LINE ( 'NONE', #452, #451 ) ;
#454 = CARTESIAN_POINT ( 'NONE',  ( 0.1999999999999999800, 0.0000000000000000000, -0.04499999999999997100 ) ) ;
#455 = DIRECTION ( 'NONE',  ( -1.000000000000000000, 0.0000000000000000000, 1.108704542883224100E-016 ) ) ;
#456 = VECTOR ( 'NONE', #455, 39.37007874015748100 ) ;
#457 = CARTESIAN_POINT ( 'NONE',  ( 0.5079999999999997900, 0.0000000000000000000, -0.1000000000000000100 ) ) ;
#458 = LINE ( 'NONE', #457, #456 ) ;
#459 = DIRECTION ( 'NONE',  ( 0.0000000000000000000, 0.0000000000000000000, -1.000000000000000000 ) ) ;
#460 = DIRECTION ( 'NONE',  ( 1.000000000000000000, 0.0000000000000000000, -0.0000000000000000000 ) ) ;
#461 = CARTESIAN_POINT ( 'NONE',  ( 0.4279999999999999400, 0.008999999999999992400, 0.06249799996799901300 ) ) ;
#462 = AXIS2_PLACEMENT_3D ( 'NONE', #461, #460, #459 ) ;
#463 = CIRCLE ( 'NONE', #462, 0.001000000000000003100 ) ;
#464 = DIRECTION ( 'NONE',  ( -0.0000000000000000000, -1.000000000000000000, -0.0000000000000000000 ) ) ;
#465 = VECTOR ( 'NONE', #464, 39.37007874015748100 ) ;
#466 = CARTESIAN_POINT ( 'NONE',  ( 0.05000000000000000300, 0.008000000000000000200, 0.09999999999999997800 ) ) ;
#467 = LINE ( 'NONE', #466, #465 ) ;
#468 = DIRECTION ( 'NONE',  ( -0.0000000000000000000, -1.000000000000000000, -0.0000000000000000000 ) ) ;
#469 = VECTOR ( 'NONE', #468, 39.37007874015748100 ) ;
#470 = CARTESIAN_POINT ( 'NONE',  ( 0.0000000000000000000, 0.008000000000000000200, 0.09999999999999997800 ) ) ;
#471 = LINE ( 'NONE', #470, #469 ) ;
#472 = CARTESIAN_POINT ( 'NONE',  ( 0.05000000000000001000, 0.0000000000000000000, -0.04499999999999997100 ) ) ;
#473 = DIRECTION ( 'NONE',  ( -0.0000000000000000000, -0.0000000000000000000, 1.000000000000000000 ) ) ;
#474 = VECTOR ( 'NONE', #473, 39.37007874015748100 ) ;
#475 = CARTESIAN_POINT ( 'NONE',  ( 0.0000000000000000000, 0.0000000000000000000, 0.09999999999999997800 ) ) ;
#476 = LINE ( 'NONE', #475, #474 ) ;
#477 = DIRECTION ( 'NONE',  ( -1.552186360036513200E-016, -0.0000000000000000000, -1.000000000000000000 ) ) ;
#478 = VECTOR ( 'NONE', #477, 39.37007874015748100 ) ;
#479 = CARTESIAN_POINT ( 'NONE',  ( 0.05000000000000000300, 0.0000000000000000000, -0.09999999999999997800 ) ) ;
#480 = LINE ( 'NONE', #479, #478 ) ;
#481 = AXIS2_PLACEMENT_3D ( 'NONE', #416, #415, #414 ) ;
#482 = FACE_OUTER_BOUND ( 'NONE', #95, .T. ) ;
#483 = SPHERICAL_SURFACE ( 'NONE', #481, 0.1223823529411765100 ) ;
#484 = DIRECTION ( 'NONE',  ( 0.0000000000000000000, 0.0000000000000000000, -1.000000000000000000 ) ) ;
#485 = DIRECTION ( 'NONE',  ( -0.0000000000000000000, 1.000000000000000000, -0.0000000000000000000 ) ) ;
#486 = CARTESIAN_POINT ( 'NONE',  ( 0.4279999999999999400, 0.008137783075089397400, 3.414809992080329000E-017 ) ) ;
#487 = AXIS2_PLACEMENT_3D ( 'NONE', #486, #485, #484 ) ;
#488 = CIRCLE ( 'NONE', #487, 0.06199146075490914000 ) ;
#489 = FACE_OUTER_BOUND ( 'NONE', #90, .T. ) ;
#490 = CARTESIAN_POINT ( 'NONE',  ( 0.4279999999999999400, 0.008137783075089397400, 0.06199146075490918200 ) ) ;
#491 = TOROIDAL_SURFACE ( 'NONE', #508, 0.06249799996799897800, 0.0009999999999999987200 ) ;
#492 = COLOUR_RGB ( '',0.9882352941176471000, 1.000000000000000000, 0.9882352941176471000 ) ;
#493 = VECTOR ( 'NONE', #353, 39.37007874015748100 ) ;
#494 = CARTESIAN_POINT ( 'NONE',  ( 0.0000000000000000000, 0.0000000000000000000, 0.09999999999999997800 ) ) ;
#495 = LINE ( 'NONE', #494, #493 ) ;
#496 = LENGTH_MEASURE_WITH_UNIT ( LENGTH_MEASURE( 0.02539999999999999900 ), #498 );
#497 = DIMENSIONAL_EXPONENTS ( 1.000000000000000000, 0.0000000000000000000, 0.0000000000000000000, 0.0000000000000000000, 0.0000000000000000000, 0.0000000000000000000, 0.0000000000000000000 ) ;
#498 =( LENGTH_UNIT ( ) NAMED_UNIT ( * ) SI_UNIT ( $, .METRE. ) );
#499 = MECHANICAL_DESIGN_GEOMETRIC_PRESENTATION_REPRESENTATION (  '', ( #344 ), #307 ) ;
#500 = DIRECTION ( 'NONE',  ( -0.0000000000000000000, 1.000000000000000000, -0.0000000000000000000 ) ) ;
#501 = CARTESIAN_POINT ( 'NONE',  ( 0.4899914607549090700, 0.008137783075089397400, 2.655658624848406400E-017 ) ) ;
#502 = DIRECTION ( 'NONE',  ( 0.0000000000000000000, 0.0000000000000000000, -1.000000000000000000 ) ) ;
#503 = DIRECTION ( 'NONE',  ( -0.0000000000000000000, 1.000000000000000000, -0.0000000000000000000 ) ) ;
#504 = CARTESIAN_POINT ( 'NONE',  ( 0.4279999999999999400, 0.008137783075089397400, 3.414809992080329000E-017 ) ) ;
#505 = AXIS2_PLACEMENT_3D ( 'NONE', #504, #503, #502 ) ;
#506 = CIRCLE ( 'NONE', #505, 0.06199146075490914000 ) ;
#507 = CARTESIAN_POINT ( 'NONE',  ( 0.4279999999999999400, 0.008999999999999992400, 3.414809992080329000E-017 ) ) ;
#508 = AXIS2_PLACEMENT_3D ( 'NONE', #507, #352, #351 ) ;
#509 = CARTESIAN_POINT ( 'NONE',  ( 0.5079999999999997900, 0.008000000000000000200, 0.1000000000000000100 ) ) ;
#510 = DIRECTION ( 'NONE',  ( -1.000000000000000000, 0.0000000000000000000, 1.108704542883224100E-016 ) ) ;
#511 = VECTOR ( 'NONE', #510, 39.37007874015748100 ) ;
#512 = CARTESIAN_POINT ( 'NONE',  ( 0.5079999999999997900, 0.008000000000000000200, -0.1000000000000000100 ) ) ;
#513 = LINE ( 'NONE', #512, #511 ) ;
#514 = DIRECTION ( 'NONE',  ( -1.000000000000000000, -0.0000000000000000000, -0.0000000000000000000 ) ) ;
#515 = VECTOR ( 'NONE', #514, 39.37007874015748100 ) ;
#516 = CARTESIAN_POINT ( 'NONE',  ( 0.0000000000000000000, 0.008000000000000000200, -0.09999999999999997800 ) ) ;
#517 = LINE ( 'NONE', #516, #515 ) ;
#518 = DIRECTION ( 'NONE',  ( 1.241749088029210600E-015, -0.0000000000000000000, 1.000000000000000000 ) ) ;
#519 = VECTOR ( 'NONE', #518, 39.37007874015748100 ) ;
#520 = CARTESIAN_POINT ( 'NONE',  ( 0.1999999999999999800, 0.008000000000000000200, -0.04499999999999997100 ) ) ;
#521 = LINE ( 'NONE', #520, #519 ) ;
#522 = DIRECTION ( 'NONE',  ( -0.0000000000000000000, -0.0000000000000000000, 1.000000000000000000 ) ) ;
#523 = VECTOR ( 'NONE', #522, 39.37007874015748100 ) ;
#524 = CARTESIAN_POINT ( 'NONE',  ( 0.0000000000000000000, 0.008000000000000000200, 0.09999999999999997800 ) ) ;
#525 = LINE ( 'NONE', #524, #523 ) ;
#526 = CARTESIAN_POINT ( 'NONE',  ( 0.1999999999999999800, 0.008000000000000000200, -0.04499999999999997100 ) ) ;
#527 = CARTESIAN_POINT ( 'NONE',  ( 0.5279999999999999100, 0.008000000000000000200, -0.07999999999999986300 ) ) ;
#528 = DIRECTION ( 'NONE',  ( 0.0000000000000000000, 0.0000000000000000000, 1.000000000000000000 ) ) ;
#529 = DIRECTION ( 'NONE',  ( 0.0000000000000000000, 1.000000000000000000, 0.0000000000000000000 ) ) ;
#530 = CARTESIAN_POINT ( 'NONE',  ( 0.5079999999999999000, 0.008000000000000000200, 0.08000000000000001600 ) ) ;
#531 = AXIS2_PLACEMENT_3D ( 'NONE', #530, #529, #528 ) ;
#532 = CIRCLE ( 'NONE', #531, 0.01999999999999999000 ) ;
#533 = DIRECTION ( 'NONE',  ( -1.552186360036513200E-016, -0.0000000000000000000, -1.000000000000000000 ) ) ;
#534 = VECTOR ( 'NONE', #533, 39.37007874015748100 ) ;
#535 = CARTESIAN_POINT ( 'NONE',  ( 0.05000000000000000300, 0.008000000000000000200, -0.09999999999999997800 ) ) ;
#536 = LINE ( 'NONE', #535, #534 ) ;
#537 = CARTESIAN_POINT ( 'NONE',  ( 0.5079999999999997900, 0.008000000000000000200, -0.1000000000000000100 ) ) ;
#538 = CARTESIAN_POINT ( 'NONE',  ( 0.05000000000000001000, 0.008000000000000000200, -0.04499999999999997100 ) ) ;
#539 = DIRECTION ( 'NONE',  ( -0.0000000000000000000, 1.000000000000000000, -0.0000000000000000000 ) ) ;
#540 = CIRCLE ( 'NONE', #657, 0.06249799996799897800 ) ;
#541 = DIRECTION ( 'NONE',  ( 0.0000000000000000000, 0.0000000000000000000, 1.000000000000000000 ) ) ;
#542 = CIRCLE ( 'NONE', #547, 0.06249799996799897800 ) ;
#543 = DIRECTION ( 'NONE',  ( 1.000000000000000000, 0.0000000000000000000, 0.0000000000000000000 ) ) ;
#544 = DIRECTION ( 'NONE',  ( -1.000000000000000000, 0.0000000000000000000, -1.108704542883224100E-016 ) ) ;
#545 = AXIS2_PLACEMENT_3D ( 'NONE', #607, #606, #544 ) ;
#546 = PLANE ( 'NONE',  #545 ) ;
#547 = AXIS2_PLACEMENT_3D ( 'NONE', #712, #539, #628 ) ;
#548 = PLANE ( 'NONE',  #551 ) ;
#549 = FACE_OUTER_BOUND ( 'NONE', #301, .T. ) ;
#550 = CARTESIAN_POINT ( 'NONE',  ( 0.0000000000000000000, 0.008000000000000000200, 0.09999999999999997800 ) ) ;
#551 = AXIS2_PLACEMENT_3D ( 'NONE', #550, #605, #604 ) ;
#552 = DIRECTION ( 'NONE',  ( -1.241749088029210600E-015, 0.0000000000000000000, -1.000000000000000000 ) ) ;
#553 = DIRECTION ( 'NONE',  ( 1.000000000000000000, 0.0000000000000000000, -1.241749088029210600E-015 ) ) ;
#554 = CARTESIAN_POINT ( 'NONE',  ( 0.1999999999999999800, 0.008000000000000000200, -0.04499999999999997100 ) ) ;
#555 = FACE_OUTER_BOUND ( 'NONE', #265, .T. ) ;
#556 = AXIS2_PLACEMENT_3D ( 'NONE', #554, #553, #552 ) ;
#557 = PLANE ( 'NONE',  #556 ) ;
#558 = DIRECTION ( 'NONE',  ( 0.0000000000000000000, 0.0000000000000000000, -1.000000000000000000 ) ) ;
#559 = DIRECTION ( 'NONE',  ( -0.0000000000000000000, -1.000000000000000000, -0.0000000000000000000 ) ) ;
#560 = FACE_OUTER_BOUND ( 'NONE', #175, .T. ) ;
#561 = CARTESIAN_POINT ( 'NONE',  ( 0.05000000000000000300, 0.008000000000000000200, -0.09999999999999997800 ) ) ;
#562 = DIRECTION ( 'NONE',  ( 0.0000000000000000000, 0.0000000000000000000, -1.000000000000000000 ) ) ;
#563 = DIRECTION ( 'NONE',  ( -0.0000000000000000000, 1.000000000000000000, -0.0000000000000000000 ) ) ;
#564 = CARTESIAN_POINT ( 'NONE',  ( 0.4279999999999999400, 0.008137783075089397400, 3.414809992080329000E-017 ) ) ;
#565 = AXIS2_PLACEMENT_3D ( 'NONE', #564, #563, #562 ) ;
#566 = CIRCLE ( 'NONE', #565, 0.06199146075490914000 ) ;
#567 = AXIS2_PLACEMENT_3D ( 'NONE', #561, #217, #745 ) ;
#568 = DIRECTION ( 'NONE',  ( -0.0000000000000000000, -1.000000000000000000, -0.0000000000000000000 ) ) ;
#569 = VECTOR ( 'NONE', #568, 39.37007874015748100 ) ;
#570 = CARTESIAN_POINT ( 'NONE',  ( 0.05000000000000001000, 0.008000000000000000200, -0.04499999999999997100 ) ) ;
#571 = LINE ( 'NONE', #570, #569 ) ;
#572 = DIRECTION ( 'NONE',  ( -0.0000000000000000000, -1.000000000000000000, -0.0000000000000000000 ) ) ;
#573 = VECTOR ( 'NONE', #572, 39.37007874015748100 ) ;
#574 = CARTESIAN_POINT ( 'NONE',  ( 0.0000000000000000000, 0.008000000000000000200, -0.09999999999999997800 ) ) ;
#575 = LINE ( 'NONE', #574, #573 ) ;
#576 = DIRECTION ( 'NONE',  ( -0.0000000000000000000, -1.000000000000000000, -0.0000000000000000000 ) ) ;
#577 = VECTOR ( 'NONE', #576, 39.37007874015748100 ) ;
#578 = CARTESIAN_POINT ( 'NONE',  ( 0.05000000000000000300, 0.008000000000000000200, -0.09999999999999997800 ) ) ;
#579 = LINE ( 'NONE', #578, #577 ) ;
#580 = DIRECTION ( 'NONE',  ( 1.552186360036513200E-016, 0.0000000000000000000, -1.000000000000000000 ) ) ;
#581 = VECTOR ( 'NONE', #580, 39.37007874015748100 ) ;
#582 = CARTESIAN_POINT ( 'NONE',  ( 0.05000000000000000300, 0.0000000000000000000, 0.09999999999999997800 ) ) ;
#583 = LINE ( 'NONE', #582, #581 ) ;
#584 = DIRECTION ( 'NONE',  ( -1.000000000000000000, -0.0000000000000000000, -0.0000000000000000000 ) ) ;
#585 = VECTOR ( 'NONE', #584, 39.37007874015748100 ) ;
#586 = DIRECTION ( 'NONE',  ( -0.0000000000000000000, -1.000000000000000000, -0.0000000000000000000 ) ) ;
#587 = DIRECTION ( 'NONE',  ( -0.0000000000000000000, -1.000000000000000000, -0.0000000000000000000 ) ) ;
#588 = VECTOR ( 'NONE', #587, 39.37007874015748100 ) ;
#589 = CARTESIAN_POINT ( 'NONE',  ( 0.5079999999999997900, 0.008000000000000000200, 0.1000000000000000100 ) ) ;
#590 = LINE ( 'NONE', #589, #588 ) ;
#591 = FACE_OUTER_BOUND ( 'NONE', #71, .T. ) ;
#592 = AXIS2_PLACEMENT_3D ( 'NONE', #662, #661, #660 ) ;
#593 = PLANE ( 'NONE',  #592 ) ;
#594 = DIRECTION ( 'NONE',  ( -1.000000000000000000, -0.0000000000000000000, -0.0000000000000000000 ) ) ;
#595 = VECTOR ( 'NONE', #594, 39.37007874015748100 ) ;
#596 = CARTESIAN_POINT ( 'NONE',  ( 0.0000000000000000000, 0.0000000000000000000, -0.09999999999999997800 ) ) ;
#597 = LINE ( 'NONE', #596, #595 ) ;
#598 = AXIS2_PLACEMENT_3D ( 'NONE', #726, #713, #543 ) ;
#599 = DIRECTION ( 'NONE',  ( -1.000000000000000000, 0.0000000000000000000, 0.0000000000000000000 ) ) ;
#600 = DIRECTION ( 'NONE',  ( -0.0000000000000000000, -0.0000000000000000000, -1.000000000000000000 ) ) ;
#601 = AXIS2_PLACEMENT_3D ( 'NONE', #602, #600, #599 ) ;
#602 = CARTESIAN_POINT ( 'NONE',  ( 0.4279999999999999400, -0.09738235294117650300, 3.414809992080329000E-017 ) ) ;
#603 = SPHERICAL_SURFACE ( 'NONE', #601, 0.1143823529411765000 ) ;
#604 = DIRECTION ( 'NONE',  ( 0.0000000000000000000, 0.0000000000000000000, -1.000000000000000000 ) ) ;
#605 = DIRECTION ( 'NONE',  ( 1.000000000000000000, -0.0000000000000000000, 0.0000000000000000000 ) ) ;
#606 = DIRECTION ( 'NONE',  ( 1.108704542883224100E-016, 0.0000000000000000000, -1.000000000000000000 ) ) ;
#607 = CARTESIAN_POINT ( 'NONE',  ( 0.5079999999999997900, 0.008000000000000000200, 0.1000000000000000100 ) ) ;
#608 = CARTESIAN_POINT ( 'NONE',  ( 0.5079999999999997900, 0.0000000000000000000, 0.1000000000000000100 ) ) ;
#609 = CARTESIAN_POINT ( 'NONE',  ( 0.05000000000000001000, 0.0000000000000000000, -0.04499999999999997100 ) ) ;
#610 = LINE ( 'NONE', #609, #585 ) ;
#611 = CARTESIAN_POINT ( 'NONE',  ( 0.1999999999999999300, 0.008000000000000000200, 0.09999999999999997800 ) ) ;
#612 = LINE ( 'NONE', #611, #645 ) ;
#613 = DIRECTION ( 'NONE',  ( -0.0000000000000000000, -1.000000000000000000, -0.0000000000000000000 ) ) ;
#614 = VECTOR ( 'NONE', #613, 39.37007874015748100 ) ;
#615 = CARTESIAN_POINT ( 'NONE',  ( 0.05000000000000001000, 0.008000000000000000200, 0.04499999999999997100 ) ) ;
#616 = LINE ( 'NONE', #615, #614 ) ;
#617 = CARTESIAN_POINT ( 'NONE',  ( 0.5079999999999999000, 0.0000000000000000000, -0.08000000000000001600 ) ) ;
#618 = CARTESIAN_POINT ( 'NONE',  ( 0.1999999999999999300, 0.0000000000000000000, 0.09999999999999997800 ) ) ;
#619 = FACE_OUTER_BOUND ( 'NONE', #183, .T. ) ;
#620 = PLANE ( 'NONE',  #670 ) ;
#621 = FACE_OUTER_BOUND ( 'NONE', #186, .T. ) ;
#622 = CARTESIAN_POINT ( 'NONE',  ( 0.5279999999999999100, 0.0000000000000000000, -0.07999999999999986300 ) ) ;
#623 = CARTESIAN_POINT ( 'NONE',  ( 0.1999999999999999300, 0.0000000000000000000, -0.09999999999999997800 ) ) ;
#624 = DIRECTION ( 'NONE',  ( 0.0000000000000000000, 0.0000000000000000000, 1.000000000000000000 ) ) ;
#625 = DIRECTION ( 'NONE',  ( 0.0000000000000000000, 1.000000000000000000, 0.0000000000000000000 ) ) ;
#626 = CARTESIAN_POINT ( 'NONE',  ( 0.5079999999999999000, 0.0000000000000000000, 0.08000000000000001600 ) ) ;
#627 = LINE ( 'NONE', #630, #629 ) ;
#628 = DIRECTION ( 'NONE',  ( 0.0000000000000000000, 0.0000000000000000000, 1.000000000000000000 ) ) ;
#629 = VECTOR ( 'NONE', #586, 39.37007874015748100 ) ;
#630 = CARTESIAN_POINT ( 'NONE',  ( 0.5079999999999997900, 0.008000000000000000200, -0.1000000000000000100 ) ) ;
#631 = LINE ( 'NONE', #654, #653 ) ;
#632 = DIRECTION ( 'NONE',  ( -1.241749088029210600E-015, 0.0000000000000000000, 1.000000000000000000 ) ) ;
#633 = VECTOR ( 'NONE', #632, 39.37007874015748100 ) ;
#634 = CARTESIAN_POINT ( 'NONE',  ( 0.1999999999999999800, 0.0000000000000000000, 0.04499999999999997100 ) ) ;
#635 = LINE ( 'NONE', #634, #633 ) ;
#636 = DIRECTION ( 'NONE',  ( 0.0000000000000000000, 1.000000000000000000, 0.0000000000000000000 ) ) ;
#637 = AXIS2_PLACEMENT_3D ( 'NONE', #617, #636, #541 ) ;
#638 = CIRCLE ( 'NONE', #637, 0.01999999999999999000 ) ;
#639 = CARTESIAN_POINT ( 'NONE',  ( 0.4279999999999999400, 0.0000000000000000000, 3.414809992080329000E-017 ) ) ;
#640 = DIRECTION ( 'NONE',  ( -0.0000000000000000000, -1.000000000000000000, -0.0000000000000000000 ) ) ;
#641 = VECTOR ( 'NONE', #640, 39.37007874015748100 ) ;
#642 = CARTESIAN_POINT ( 'NONE',  ( 0.1999999999999999800, 0.008000000000000000200, 0.04499999999999997100 ) ) ;
#643 = LINE ( 'NONE', #642, #641 ) ;
#644 = DIRECTION ( 'NONE',  ( -0.0000000000000000000, -1.000000000000000000, -0.0000000000000000000 ) ) ;
#645 = VECTOR ( 'NONE', #644, 39.37007874015748100 ) ;
#646 = AXIS2_PLACEMENT_3D ( 'NONE', #626, #625, #624 ) ;
#647 = CIRCLE ( 'NONE', #646, 0.01999999999999999000 ) ;
#648 = DIRECTION ( 'NONE',  ( 1.000000000000000000, -0.0000000000000000000, 1.108704542883224100E-016 ) ) ;
#649 = VECTOR ( 'NONE', #648, 39.37007874015748100 ) ;
#650 = CARTESIAN_POINT ( 'NONE',  ( 0.5079999999999997900, 0.0000000000000000000, 0.1000000000000000100 ) ) ;
#651 = LINE ( 'NONE', #650, #649 ) ;
#652 = DIRECTION ( 'NONE',  ( -0.0000000000000000000, -1.000000000000000000, -0.0000000000000000000 ) ) ;
#653 = VECTOR ( 'NONE', #672, 39.37007874015748100 ) ;
#654 = CARTESIAN_POINT ( 'NONE',  ( 0.1999999999999999300, 0.008000000000000000200, -0.09999999999999997800 ) ) ;
#655 = DIRECTION ( 'NONE',  ( 0.0000000000000000000, 0.0000000000000000000, 1.000000000000000000 ) ) ;
#656 = DIRECTION ( 'NONE',  ( -0.0000000000000000000, 1.000000000000000000, -0.0000000000000000000 ) ) ;
#657 = AXIS2_PLACEMENT_3D ( 'NONE', #639, #656, #655 ) ;
#658 = AXIS2_PLACEMENT_3D ( 'NONE', #710, #709, #708 ) ;
#659 = PLANE ( 'NONE',  #658 ) ;
#660 = DIRECTION ( 'NONE',  ( -1.000000000000000000, 0.0000000000000000000, -0.0000000000000000000 ) ) ;
#661 = DIRECTION ( 'NONE',  ( 0.0000000000000000000, 0.0000000000000000000, -1.000000000000000000 ) ) ;
#662 = CARTESIAN_POINT ( 'NONE',  ( 0.0000000000000000000, 0.008000000000000000200, 0.09999999999999997800 ) ) ;
#663 = FACE_OUTER_BOUND ( 'NONE', #182, .T. ) ;
#664 = PLANE ( 'NONE',  #666 ) ;
#665 = CARTESIAN_POINT ( 'NONE',  ( 0.05000000000000000300, 0.008000000000000000200, 0.09999999999999997800 ) ) ;
#666 = AXIS2_PLACEMENT_3D ( 'NONE', #665, #674, #673 ) ;
#667 = DIRECTION ( 'NONE',  ( -1.000000000000000000, 0.0000000000000000000, -0.0000000000000000000 ) ) ;
#668 = DIRECTION ( 'NONE',  ( 0.0000000000000000000, 0.0000000000000000000, -1.000000000000000000 ) ) ;
#669 = CARTESIAN_POINT ( 'NONE',  ( 0.05000000000000001000, 0.008000000000000000200, 0.04499999999999997100 ) ) ;
#670 = AXIS2_PLACEMENT_3D ( 'NONE', #669, #668, #667 ) ;
#671 = FACE_OUTER_BOUND ( 'NONE', #144, .T. ) ;
#672 = DIRECTION ( 'NONE',  ( -0.0000000000000000000, -1.000000000000000000, -0.0000000000000000000 ) ) ;
#673 = DIRECTION ( 'NONE',  ( -1.552186360036513200E-016, 0.0000000000000000000, 1.000000000000000000 ) ) ;
#674 = DIRECTION ( 'NONE',  ( -1.000000000000000000, 0.0000000000000000000, -1.552186360036513200E-016 ) ) ;
#675 = DIRECTION ( 'NONE',  ( 0.0000000000000000000, 0.0000000000000000000, 1.000000000000000000 ) ) ;
#676 = DIRECTION ( 'NONE',  ( -1.000000000000000000, 0.0000000000000000000, 0.0000000000000000000 ) ) ;
#677 = CARTESIAN_POINT ( 'NONE',  ( 0.5279999999999999100, 0.008000000000000000200, 0.07999999999999986300 ) ) ;
#678 = LINE ( 'NONE', #701, #700 ) ;
#679 = AXIS2_PLACEMENT_3D ( 'NONE', #677, #676, #675 ) ;
#680 = PLANE ( 'NONE',  #679 ) ;
#681 = DIRECTION ( 'NONE',  ( 1.000000000000000000, 0.0000000000000000000, -0.0000000000000000000 ) ) ;
#682 = DIRECTION ( 'NONE',  ( 0.0000000000000000000, 0.0000000000000000000, 1.000000000000000000 ) ) ;
#683 = CARTESIAN_POINT ( 'NONE',  ( 0.0000000000000000000, 0.008000000000000000200, -0.09999999999999997800 ) ) ;
#684 = FACE_OUTER_BOUND ( 'NONE', #277, .T. ) ;
#685 = AXIS2_PLACEMENT_3D ( 'NONE', #683, #682, #681 ) ;
#686 = PLANE ( 'NONE',  #685 ) ;
#687 = DIRECTION ( 'NONE',  ( 1.000000000000000000, 0.0000000000000000000, -1.108704542883224100E-016 ) ) ;
#688 = DIRECTION ( 'NONE',  ( 1.108704542883224100E-016, -0.0000000000000000000, 1.000000000000000000 ) ) ;
#689 = CARTESIAN_POINT ( 'NONE',  ( 0.4279999999999999400, -0.09738235294117650300, 3.414809992080329000E-017 ) ) ;
#690 = SPHERICAL_SURFACE ( 'NONE', #725, 0.1223823529411765100 ) ;
#691 = FACE_OUTER_BOUND ( 'NONE', #252, .T. ) ;
#692 = DIRECTION ( 'NONE',  ( 1.000000000000000000, 0.0000000000000000000, -0.0000000000000000000 ) ) ;
#693 = DIRECTION ( 'NONE',  ( 0.0000000000000000000, 0.0000000000000000000, 1.000000000000000000 ) ) ;
#694 = CARTESIAN_POINT ( 'NONE',  ( 0.05000000000000001000, 0.008000000000000000200, -0.04499999999999997100 ) ) ;
#695 = AXIS2_PLACEMENT_3D ( 'NONE', #694, #693, #692 ) ;
#696 = PLANE ( 'NONE',  #695 ) ;
#697 = DIRECTION ( 'NONE',  ( -0.0000000000000000000, -0.0000000000000000000, -1.000000000000000000 ) ) ;
#698 = FACE_OUTER_BOUND ( 'NONE', #271, .T. ) ;
#699 = DIRECTION ( 'NONE',  ( -0.0000000000000000000, -1.000000000000000000, -0.0000000000000000000 ) ) ;
#700 = VECTOR ( 'NONE', #699, 39.37007874015748100 ) ;
#701 = CARTESIAN_POINT ( 'NONE',  ( 0.5279999999999999100, 0.008000000000000000200, -0.07999999999999986300 ) ) ;
#702 = VECTOR ( 'NONE', #652, 39.37007874015748100 ) ;
#703 = CARTESIAN_POINT ( 'NONE',  ( 0.5279999999999999100, 0.008000000000000000200, 0.07999999999999986300 ) ) ;
#704 = LINE ( 'NONE', #703, #702 ) ;
#705 = CYLINDRICAL_SURFACE ( 'NONE', #707, 0.01999999999999999000 ) ;
#706 = CARTESIAN_POINT ( 'NONE',  ( 0.5079999999999999000, 0.008000000000000000200, 0.08000000000000001600 ) ) ;
#707 = AXIS2_PLACEMENT_3D ( 'NONE', #706, #739, #738 ) ;
#708 = DIRECTION ( 'NONE',  ( 1.241749088029210600E-015, 0.0000000000000000000, -1.000000000000000000 ) ) ;
#709 = DIRECTION ( 'NONE',  ( 1.000000000000000000, -0.0000000000000000000, 1.241749088029210600E-015 ) ) ;
#710 = CARTESIAN_POINT ( 'NONE',  ( 0.1999999999999999800, 0.008000000000000000200, 0.04499999999999997100 ) ) ;
#711 = FACE_OUTER_BOUND ( 'NONE', #197, .T. ) ;
#712 = CARTESIAN_POINT ( 'NONE',  ( 0.4279999999999999400, 0.0000000000000000000, 3.414809992080329000E-017 ) ) ;
#713 = DIRECTION ( 'NONE',  ( 0.0000000000000000000, 0.0000000000000000000, 1.000000000000000000 ) ) ;
#714 = CIRCLE ( 'NONE', #598, 0.1223823529411765100 ) ;
#715 = CARTESIAN_POINT ( 'NONE',  ( 0.05000000000000000300, 0.0000000000000000000, 0.09999999999999997800 ) ) ;
#716 = CYLINDRICAL_SURFACE ( 'NONE', #719, 0.01999999999999999000 ) ;
#717 = FACE_OUTER_BOUND ( 'NONE', #281, .T. ) ;
#718 = CARTESIAN_POINT ( 'NONE',  ( 0.5079999999999999000, 0.008000000000000000200, -0.08000000000000001600 ) ) ;
#719 = AXIS2_PLACEMENT_3D ( 'NONE', #718, #559, #558 ) ;
#720 = DIRECTION ( 'NONE',  ( -0.0000000000000000000, -1.000000000000000000, -0.0000000000000000000 ) ) ;
#721 = VECTOR ( 'NONE', #720, 39.37007874015748100 ) ;
#722 = CARTESIAN_POINT ( 'NONE',  ( 0.1999999999999999800, 0.008000000000000000200, -0.04499999999999997100 ) ) ;
#723 = LINE ( 'NONE', #722, #721 ) ;
#724 = DIRECTION ( 'NONE',  ( -1.000000000000000000, 0.0000000000000000000, 0.0000000000000000000 ) ) ;
#725 = AXIS2_PLACEMENT_3D ( 'NONE', #689, #697, #724 ) ;
#726 = CARTESIAN_POINT ( 'NONE',  ( 0.4279999999999999400, -0.09738235294117650300, 3.414809992080329000E-017 ) ) ;
#727 = CARTESIAN_POINT ( 'NONE',  ( 0.5079999999999997900, 0.008000000000000000200, -0.1000000000000000100 ) ) ;
#728 = AXIS2_PLACEMENT_3D ( 'NONE', #727, #688, #687 ) ;
#729 = FACE_OUTER_BOUND ( 'NONE', #253, .T. ) ;
#730 = PLANE ( 'NONE',  #728 ) ;
#731 = FACE_OUTER_BOUND ( 'NONE', #155, .T. ) ;
#732 = CARTESIAN_POINT ( 'NONE',  ( 0.1999999999999999800, 0.0000000000000000000, 0.04499999999999997100 ) ) ;
#733 = CARTESIAN_POINT ( 'NONE',  ( 0.0000000000000000000, 0.0000000000000000000, -0.09999999999999997800 ) ) ;
#734 = DIRECTION ( 'NONE',  ( 0.0000000000000000000, 0.0000000000000000000, -1.000000000000000000 ) ) ;
#735 = VECTOR ( 'NONE', #734, 39.37007874015748100 ) ;
#736 = CARTESIAN_POINT ( 'NONE',  ( 0.5279999999999999100, 0.0000000000000000000, 0.07999999999999986300 ) ) ;
#737 = LINE ( 'NONE', #736, #735 ) ;
#738 = DIRECTION ( 'NONE',  ( 0.0000000000000000000, 0.0000000000000000000, -1.000000000000000000 ) ) ;
#739 = DIRECTION ( 'NONE',  ( -0.0000000000000000000, -1.000000000000000000, -0.0000000000000000000 ) ) ;
#740 = DIRECTION ( 'NONE',  ( 0.0000000000000000000, -1.000000000000000000, 0.0000000000000000000 ) ) ;
#741 = TOROIDAL_SURFACE ( 'NONE', #747, 0.06249799996799897800, 0.0009999999999999987200 ) ;
#742 = FACE_OUTER_BOUND ( 'NONE', #292, .T. ) ;
#743 = FACE_OUTER_BOUND ( 'NONE', #239, .T. ) ;
#744 = DIRECTION ( 'NONE',  ( 0.0000000000000000000, 0.0000000000000000000, 1.000000000000000000 ) ) ;
#745 = DIRECTION ( 'NONE',  ( 1.552186360036513200E-016, 0.0000000000000000000, 1.000000000000000000 ) ) ;
#746 = CARTESIAN_POINT ( 'NONE',  ( 0.4279999999999999400, 0.008999999999999992400, 3.414809992080329000E-017 ) ) ;
#747 = AXIS2_PLACEMENT_3D ( 'NONE', #746, #740, #744 ) ;
#748 = CARTESIAN_POINT ( 'NONE',  ( 0.0000000000000000000, 0.0000000000000000000, 0.0000000000000000000 ) ) ;
#749 =( NAMED_UNIT ( * ) PLANE_ANGLE_UNIT ( ) SI_UNIT ( $, .RADIAN. ) );
#750 =( CONVERSION_BASED_UNIT ( 'INCH', #751 ) LENGTH_UNIT ( ) NAMED_UNIT ( #752 ) );
#751 = LENGTH_MEASURE_WITH_UNIT ( LENGTH_MEASURE( 0.02539999999999999900 ), #753 );
#752 = DIMENSIONAL_EXPONENTS ( 1.000000000000000000, 0.0000000000000000000, 0.0000000000000000000, 0.0000000000000000000, 0.0000000000000000000, 0.0000000000000000000, 0.0000000000000000000 ) ;
#753 =( LENGTH_UNIT ( ) NAMED_UNIT ( * ) SI_UNIT ( $, .METRE. ) );
#754 = MECHANICAL_DESIGN_GEOMETRIC_PRESENTATION_REPRESENTATION (  '', ( #756 ), #778 ) ;
#755 = PRESENTATION_LAYER_ASSIGNMENT (  '', '', ( #756 ) ) ;
#756 = STYLED_ITEM ( 'NONE', ( #757 ), #782 ) ;
#757 = PRESENTATION_STYLE_ASSIGNMENT (( #758 ) ) ;
#758 = SURFACE_STYLE_USAGE ( .BOTH. , #759 ) ;
#759 = SURFACE_SIDE_STYLE ('',( #760 ) ) ;
#760 = SURFACE_STYLE_FILL_AREA ( #761 ) ;
#761 = FILL_AREA_STYLE ('',( #781 ) ) ;
#762 = COLOUR_RGB ( '',0.9882352941176471000, 1.000000000000000000, 0.9882352941176471000 ) ;
#763 = CARTESIAN_POINT ( 'NONE',  ( 0.4279999999999999400, 0.001240047675804524300, 3.414809992080329000E-017 ) ) ;
#764 = CARTESIAN_POINT ( 'NONE',  ( 0.4279999999999999400, 0.008999999999999992400, 3.414809992080329000E-017 ) ) ;
#765 = TOROIDAL_SURFACE ( 'NONE', #771, 0.06249799996799897800, 0.008999999999999999300 ) ;
#766 = AXIS2_PLACEMENT_3D ( 'NONE', #763, #772, #786 ) ;
#767 = FACE_OUTER_BOUND ( 'NONE', #210, .T. ) ;
#768 =( CONVERSION_BASED_UNIT ( 'INCH', #769 ) LENGTH_UNIT ( ) NAMED_UNIT ( #770 ) );
#769 = LENGTH_MEASURE_WITH_UNIT ( LENGTH_MEASURE( 0.02539999999999999900 ), #774 );
#770 = DIMENSIONAL_EXPONENTS ( 1.000000000000000000, 0.0000000000000000000, 0.0000000000000000000, 0.0000000000000000000, 0.0000000000000000000, 0.0000000000000000000, 0.0000000000000000000 ) ;
#771 = AXIS2_PLACEMENT_3D ( 'NONE', #764, #785, #773 ) ;
#772 = DIRECTION ( 'NONE',  ( -0.0000000000000000000, 1.000000000000000000, -0.0000000000000000000 ) ) ;
#773 = DIRECTION ( 'NONE',  ( 0.0000000000000000000, 0.0000000000000000000, 1.000000000000000000 ) ) ;
#774 =( LENGTH_UNIT ( ) NAMED_UNIT ( * ) SI_UNIT ( $, .METRE. ) );
#775 = DIRECTION ( 'NONE',  ( 1.000000000000000000, 0.0000000000000000000, 0.0000000000000000000 ) ) ;
#776 = DIRECTION ( 'NONE',  ( 0.0000000000000000000, 0.0000000000000000000, 1.000000000000000000 ) ) ;
#777 = AXIS2_PLACEMENT_3D ( 'NONE', #748, #776, #775 ) ;
#778 =( GEOMETRIC_REPRESENTATION_CONTEXT ( 3 ) GLOBAL_UNCERTAINTY_ASSIGNED_CONTEXT ( ( #779 ) ) GLOBAL_UNIT_ASSIGNED_CONTEXT ( ( #750, #749, #780 ) ) REPRESENTATION_CONTEXT ( 'NONE', 'WORKASPACE' ) );
#779 = UNCERTAINTY_MEASURE_WITH_UNIT (LENGTH_MEASURE( 1.000000000000000100E-005 ), #750, 'distance_accuracy_value', 'NONE');
#780 =( NAMED_UNIT ( * ) SI_UNIT ( $, .STERADIAN. ) SOLID_ANGLE_UNIT ( ) );
#781 = FILL_AREA_STYLE_COLOUR ( '', #762 ) ;
#782 = ADVANCED_BREP_SHAPE_REPRESENTATION ( '230-1', ( #24, #777 ), #783 ) ;
#783 =( GEOMETRIC_REPRESENTATION_CONTEXT ( 3 ) GLOBAL_UNCERTAINTY_ASSIGNED_CONTEXT ( ( #787 ) ) GLOBAL_UNIT_ASSIGNED_CONTEXT ( ( #768, #789, #788 ) ) REPRESENTATION_CONTEXT ( 'NONE', 'WORKASPACE' ) );
#784 = CIRCLE ( 'NONE', #766, 0.05793914705019023700 ) ;
#785 = DIRECTION ( 'NONE',  ( 0.0000000000000000000, -1.000000000000000000, 0.0000000000000000000 ) ) ;
#786 = DIRECTION ( 'NONE',  ( 0.0000000000000000000, 0.0000000000000000000, 1.000000000000000000 ) ) ;
#787 = UNCERTAINTY_MEASURE_WITH_UNIT (LENGTH_MEASURE( 1.000000000000000100E-005 ), #768, 'distance_accuracy_value', 'NONE');
#788 =( NAMED_UNIT ( * ) SI_UNIT ( $, .STERADIAN. ) SOLID_ANGLE_UNIT ( ) );
#789 =( NAMED_UNIT ( * ) PLANE_ANGLE_UNIT ( ) SI_UNIT ( $, .RADIAN. ) );
#790 = APPLICATION_CONTEXT ( 'automotive_design' ) ;
#791 = PRODUCT ( '230-1', '230-1', '', ( #792 ) ) ;
#792 = PRODUCT_CONTEXT ( 'NONE', #795, 'mechanical' ) ;
#793 = APPLICATION_PROTOCOL_DEFINITION ( 'draft international standard', 'automotive_design', 1998, #795 ) ;
#794 = PRODUCT_DEFINITION_SHAPE ( 'NONE', 'NONE',  #799 ) ;
#795 = APPLICATION_CONTEXT ( 'automotive_design' ) ;
#796 = SHAPE_DEFINITION_REPRESENTATION ( #794, #782 ) ;
#797 = PRODUCT_RELATED_PRODUCT_CATEGORY ( 'part', '', ( #791 ) ) ;
#798 = PRODUCT_DEFINITION_FORMATION_WITH_SPECIFIED_SOURCE ( 'ANY', '', #791, .NOT_KNOWN. ) ;
#799 = PRODUCT_DEFINITION ( 'UNKNOWN', '', #798, #800 ) ;
#800 = PRODUCT_DEFINITION_CONTEXT ( 'detailed design', #790, 'design' ) ;
#801 = APPLICATION_PROTOCOL_DEFINITION ( 'draft international standard', 'automotive_design', 1998, #790 ) ;
ENDSEC;
END-ISO-10303-21;
